<svg id="Layer_1" data-name="Layer 1" xmlns="http://www.w3.org/2000/svg" viewBox="0 0 192 192"><title>pms-icons</title><g id="add-active"><circle cx="96" cy="96" r="85.36" style="fill:#141414"/><path d="M96,0a96,96,0,1,0,96,96A96,96,0,0,0,96,0Zm0,175.42A79.42,79.42,0,1,1,175.42,96,79.41,79.41,0,0,1,96,175.42Z" style="fill:#141414"/><path d="M152.41,86.94H105.06V39.59a56.59,56.59,0,0,0-18.12,0V86.94H39.59a56.59,56.59,0,0,0,0,18.12H86.94v47.35a56.59,56.59,0,0,0,18.12,0V105.06h47.35a56.59,56.59,0,0,0,0-18.12Z" style="fill:#f8f8f8"/></g></svg>