<svg id="Layer_1" data-name="Layer 1" xmlns="http://www.w3.org/2000/svg" viewBox="0 0 192 192"><title>pms-icons</title><g id="settings"><circle cx="96" cy="96" r="85.46" style="fill:#f8f8f8"/><path d="M96,0a96,96,0,1,0,96,96A96,96,0,0,0,96,0Zm0,175.42A79.42,79.42,0,1,1,175.42,96,79.41,79.41,0,0,1,96,175.42Z" style="fill:#141414"/><path d="M134.06,51.82a5.51,5.51,0,0,0-4-1.71,5.44,5.44,0,0,0-4,1.71l-6.15,6.12a42,42,0,0,0-5.21-2.83,53.92,53.92,0,0,0-5.57-2.17V43.52a5.62,5.62,0,0,0-5.67-5.68H91.56a5.5,5.5,0,0,0-4,1.65,5.4,5.4,0,0,0-1.69,4v8.63a41.54,41.54,0,0,0-5.74,1.76,44.91,44.91,0,0,0-5.29,2.44l-6.81-6.71a5.2,5.2,0,0,0-3.93-1.7,5.61,5.61,0,0,0-4,1.7l-8.27,8.3a5.62,5.62,0,0,0,0,8.07L58,72.15a40.3,40.3,0,0,0-2.83,5.22,54.72,54.72,0,0,0-2.18,5.56H43.52a5.63,5.63,0,0,0-5.68,5.68v11.83a5.5,5.5,0,0,0,1.65,4,5.4,5.4,0,0,0,4,1.69h8.63a42.4,42.4,0,0,0,1.76,5.74,52.63,52.63,0,0,0,2.44,5.4l-6.71,6.69a5.23,5.23,0,0,0-1.7,3.94,5.58,5.58,0,0,0,1.7,4l8.3,8.4a5.74,5.74,0,0,0,4,1.59,5.66,5.66,0,0,0,4-1.59l6.14-6.24a42.88,42.88,0,0,0,5.22,2.83,54.65,54.65,0,0,0,5.56,2.17v9.42a5.63,5.63,0,0,0,5.68,5.68h11.83a5.5,5.5,0,0,0,4-1.65,5.4,5.4,0,0,0,1.69-4v-8.63a41.54,41.54,0,0,0,5.74-1.76,53.86,53.86,0,0,0,5.41-2.45l6.68,6.71a5.51,5.51,0,0,0,8,0l8.39-8.29a5.72,5.72,0,0,0,1.59-4,5.66,5.66,0,0,0-1.59-4l-6.24-6.14a42.88,42.88,0,0,0,2.83-5.22,54.65,54.65,0,0,0,2.17-5.56h9.42a5.63,5.63,0,0,0,5.68-5.68V91.56a5.54,5.54,0,0,0-1.65-4,5.43,5.43,0,0,0-4-1.68h-8.63a46.4,46.4,0,0,0-1.76-5.68,43,43,0,0,0-2.44-5.35l6.71-6.81a5.2,5.2,0,0,0,1.7-3.93,5.58,5.58,0,0,0-1.7-4l-8.3-8.28ZM96,72.83a22.83,22.83,0,0,1,9,1.81A22.83,22.83,0,0,1,117.36,87a23.46,23.46,0,0,1,0,18.07A22.81,22.81,0,0,1,105,117.36a23.43,23.43,0,0,1-18.06,0A22.81,22.81,0,0,1,74.64,105a23.46,23.46,0,0,1,0-18.07A22.83,22.83,0,0,1,87,74.64a22.79,22.79,0,0,1,9-1.81Z" style="fill:#141414"/></g></svg>