<svg id="Layer_1" data-name="Layer 1" xmlns="http://www.w3.org/2000/svg" viewBox="0 0 192 192"><title>pms-icons</title><g id="pie"><circle cx="96" cy="96" r="85.36" style="fill:#f8f8f8"/><path d="M96,0a96,96,0,1,0,96,96A96,96,0,0,0,96,0Zm0,175.42A79.42,79.42,0,1,1,175.42,96,79.41,79.41,0,0,1,96,175.42Z" style="fill:#141414"/><path d="M175.23,87.71H104.29V16.77a78.88,78.88,0,0,0-16.64,0V92.59l-53.6,53.6A79.72,79.72,0,0,0,45.81,158l53.6-53.6h75.82a78.88,78.88,0,0,0,0-16.64Z" style="fill:#141414"/></g></svg>