<svg id="Layer_1" data-name="Layer 1" xmlns="http://www.w3.org/2000/svg" viewBox="0 0 192 192"><title>pms-icons</title><g id="eye-active"><circle cx="96" cy="96" r="85.46" style="fill:#141414"/><path d="M96,0a96,96,0,1,0,96,96A96,96,0,0,0,96,0Zm0,175.42A79.42,79.42,0,1,1,175.42,96,79.41,79.41,0,0,1,96,175.42Z" style="fill:#141414"/><path d="M165.81,91.7,150.92,77.17a78.69,78.69,0,0,0-55.37-22.3,78.71,78.71,0,0,0-55.37,22.3L25.3,91.7a6,6,0,0,0,0,8.6l14.88,14.53a78.71,78.71,0,0,0,55.37,22.3,78.69,78.69,0,0,0,55.37-22.3l14.89-14.53a6,6,0,0,0,0-8.6ZM95.55,116.54A20.54,20.54,0,1,1,116.09,96,20.56,20.56,0,0,1,95.55,116.54ZM38.1,96,48.6,85.76a65.85,65.85,0,0,1,28.15-16.3,32.49,32.49,0,0,0,0,53A66.09,66.09,0,0,1,48.6,106.21L38.1,96Zm104.44,10.24a66.18,66.18,0,0,1-28.16,16.27,32.49,32.49,0,0,0,0-53,65.94,65.94,0,0,1,28.16,16.3L153,96l-10.47,10.21Z" style="fill:#f8f8f8"/></g></svg>