<svg id="Layer_1" data-name="Layer 1" xmlns="http://www.w3.org/2000/svg" viewBox="0 0 192 192"><title>pms-icons</title><g id="performance"><circle cx="96" cy="96" r="85.36" style="fill:#f8f8f8"/><path d="M96,0a96,96,0,1,0,96,96A96,96,0,0,0,96,0Zm0,175.42A79.42,79.42,0,1,1,175.42,96,79.41,79.41,0,0,1,96,175.42Z" style="fill:#141414"/><path d="M160.39,49.3,111.46,98.23,95.17,81.93,83.43,70.19,71.69,81.93,23.92,129.7a79.37,79.37,0,0,0,8.88,14.6L83.43,93.68l28,28L123.2,110l45.74-45.74A78.37,78.37,0,0,0,160.39,49.3Z" style="fill:#141414"/></g></svg>