<svg id="Layer_1" data-name="Layer 1" xmlns="http://www.w3.org/2000/svg" viewBox="0 0 192 192"><title>pms-icons</title><g id="user"><circle cx="96" cy="96" r="85.46" style="fill:#f8f8f8"/><path d="M96,0a96,96,0,1,0,96,96A96,96,0,0,0,96,0Zm0,175.42A79.42,79.42,0,1,1,175.42,96,79.41,79.41,0,0,1,96,175.42Z" style="fill:#141414"/><g id="user-2" data-name="user"><g id="Group_104" data-name="Group 104"><g id="Group_103" data-name="Group 103"><path id="Path_597" data-name="Path 597" d="M96,36.17a31.05,31.05,0,1,0,31.05,31.05A31,31,0,0,0,96,36.17Z" style="fill:#141414"/></g></g><g id="Group_106" data-name="Group 106"><g id="Group_105" data-name="Group 105"><path id="Path_598" data-name="Path 598" d="M149.35,123.15a29,29,0,0,0-3.13-5.7,38.65,38.65,0,0,0-26.73-16.83,5.8,5.8,0,0,0-3.94.95,33.1,33.1,0,0,1-39.08,0,5.13,5.13,0,0,0-3.94-.95A38.36,38.36,0,0,0,45.8,117.45a33.17,33.17,0,0,0-3.12,5.7,2.86,2.86,0,0,0,.13,2.58,53.73,53.73,0,0,0,3.66,5.43,52.18,52.18,0,0,0,6.25,7A80.33,80.33,0,0,0,59,143.62a61.89,61.89,0,0,0,73.82,0,58.74,58.74,0,0,0,6.25-5.43,62.2,62.2,0,0,0,6.24-7,47.42,47.42,0,0,0,3.67-5.43A2.36,2.36,0,0,0,149.35,123.15Z" style="fill:#141414"/></g></g></g></g></svg>