<svg id="Layer_1" data-name="Layer 1" xmlns="http://www.w3.org/2000/svg" viewBox="0 0 192 192"><title>pms-icons</title><g id="delete-active"><circle cx="96" cy="96" r="83.89" style="fill:#141414"/><path d="M96,0a96,96,0,1,0,96,96A96,96,0,0,0,96,0Zm0,175.42A79.42,79.42,0,1,1,175.42,96,79.41,79.41,0,0,1,96,175.42Z" style="fill:#141414"/><path d="M60,75h72.52a7.86,7.86,0,0,1,1.74.14,5.17,5.17,0,0,1,2.5,1.36,4.74,4.74,0,0,1,1.42,2.9,6.51,6.51,0,0,1-.05,1.25l-6.18,64h0V145h0a5.44,5.44,0,0,1-.17.78h0v.05h0a5.12,5.12,0,0,1-4.75,3.54H65.37a5.65,5.65,0,0,1-1.08-.17,4.69,4.69,0,0,1-1-.42h0a5.37,5.37,0,0,1-2.68-4.24L54.52,80.65a6.92,6.92,0,0,1-.05-1.44,4.64,4.64,0,0,1,1.42-2.86A5.29,5.29,0,0,1,58.49,75a7.45,7.45,0,0,1,1.56-.11ZM55.24,50.33H82.57V47.9h0v-.24a5.21,5.21,0,0,1,1.53-3.47h0a5.28,5.28,0,0,1,3.66-1.51h17.09a5.23,5.23,0,0,1,5,5.22h0v2.43h28.13a4.09,4.09,0,0,1,3.75,3.85v9a2.25,2.25,0,0,1-2.25,2.25H52.58a2.25,2.25,0,0,1-2.25-2.23V54.44h0a1.22,1.22,0,0,1,0-.27h0A4.09,4.09,0,0,1,53.7,50.4,8.78,8.78,0,0,1,55.24,50.33ZM91.81,96.11a4.14,4.14,0,0,1,8.24,0v32.14a4.14,4.14,0,0,1-8.24,0Zm20.61-.18a4,4,0,0,1,4.35-3.52,3.88,3.88,0,0,1,3.91,3.85v0L119,128.42A4,4,0,0,1,114.6,132a3.89,3.89,0,0,1-3.92-3.85v0ZM72,96.28a3.88,3.88,0,0,1,3.88-3.87h0a4,4,0,0,1,4.35,3.52L82,128.08A3.87,3.87,0,0,1,78.14,132h0a4,4,0,0,1-4.35-3.53L72,96.28Z" style="fill:#f8f8f8;fill-rule:evenodd"/></g></svg>