<svg id="Layer_1" data-name="Layer 1" xmlns="http://www.w3.org/2000/svg" viewBox="0 0 192 192"><title>pms-icons</title><g id="eye"><circle cx="96" cy="96" r="85.46" style="fill:#f8f8f8"/><path d="M96.43,0a96,96,0,1,0,96,96A96,96,0,0,0,96.43,0Zm0,175.42A79.42,79.42,0,1,1,175.86,96,79.42,79.42,0,0,1,96.43,175.42Z" style="fill:#141414"/><path d="M166.24,91.7,151.36,77.17A78.71,78.71,0,0,0,96,54.87a78.69,78.69,0,0,0-55.37,22.3L25.73,91.7a6.06,6.06,0,0,0,0,8.6l14.89,14.53A78.69,78.69,0,0,0,96,137.13a78.71,78.71,0,0,0,55.37-22.3l14.88-14.53a6,6,0,0,0,0-8.6ZM96,116.54A20.54,20.54,0,1,1,116.52,96,20.56,20.56,0,0,1,96,116.54ZM38.53,96,49,85.76a65.94,65.94,0,0,1,28.16-16.3,32.49,32.49,0,0,0,0,53A66.18,66.18,0,0,1,49,106.21L38.53,96ZM143,106.24a66.09,66.09,0,0,1-28.15,16.27,32.49,32.49,0,0,0,0-53A65.85,65.85,0,0,1,143,85.79L153.44,96,143,106.24Z" style="fill:#141414"/></g></svg>