<svg id="Layer_1" data-name="Layer 1" xmlns="http://www.w3.org/2000/svg" viewBox="0 0 192 192"><title>pms-icons</title><g id="delete"><circle cx="96" cy="96" r="85.46" style="fill:#f8f8f8"/><path d="M96,0a96,96,0,1,0,96,96A96,96,0,0,0,96,0Zm0,175.42A79.42,79.42,0,1,1,175.42,96,79.41,79.41,0,0,1,96,175.42Z" style="fill:#141414"/><path d="M59.41,74.6h73.77a7.44,7.44,0,0,1,1.76.15,5.22,5.22,0,0,1,2.55,1.37,4.85,4.85,0,0,1,1.45,3,6.76,6.76,0,0,1-.06,1.27l-6.28,65.07h0v.37h0a5.62,5.62,0,0,1-.18.79h0v0h0a5.2,5.2,0,0,1-4.83,3.6H64.85a5.33,5.33,0,0,1-1.11-.17,5.62,5.62,0,0,1-1-.42h0A5.48,5.48,0,0,1,60,145.33L53.81,80.39a6.56,6.56,0,0,1-.05-1.47A4.71,4.71,0,0,1,55.2,76a5.3,5.3,0,0,1,2.65-1.4,7.59,7.59,0,0,1,1.58-.11Zm-4.87-25h27.8V47.07h0v-.24A5.29,5.29,0,0,1,83.9,43.3h0a5.29,5.29,0,0,1,3.72-1.53H105a5.29,5.29,0,0,1,5,5.3h0v2.48h28.62a4.15,4.15,0,0,1,3.81,3.91v9.15a2.28,2.28,0,0,1-2.29,2.29H51.83a2.3,2.3,0,0,1-2.29-2.26V53.73h0v-.28h0A4.17,4.17,0,0,1,53,49.62,8.22,8.22,0,0,1,54.54,49.55Zm37.2,46.56a4.21,4.21,0,0,1,8.38,0V128.8a4.21,4.21,0,0,1-8.38,0Zm21-.18a4,4,0,0,1,4.42-3.58,4,4,0,0,1,4,3.91v0L119.34,129a4,4,0,0,1-4.42,3.59,4,4,0,0,1-4-3.92v0Zm-41.07.36a3.94,3.94,0,0,1,3.94-3.94h0A4,4,0,0,1,80,95.93l1.77,32.7a4,4,0,0,1-4,3.94h0A4,4,0,0,1,73.39,129L71.63,96.29Z" style="fill:#141414;fill-rule:evenodd"/></g></svg>