<svg id="Layer_1" data-name="Layer 1" xmlns="http://www.w3.org/2000/svg" viewBox="0 0 192 192"><title>pms-icons</title><g id="transaction"><circle cx="96" cy="96" r="87.2" style="fill:#f8f8f8"/><path d="M96,0a96,96,0,1,0,96,96A96,96,0,0,0,96,0Zm0,175.42A79.42,79.42,0,1,1,175.42,96,79.41,79.41,0,0,1,96,175.42Z" style="fill:#141414"/><path d="M136.82,71.83,99,50a4.21,4.21,0,0,0-5.76,1.54l-3.84,6.65A4.21,4.21,0,0,0,91,64l12,6.91a.52.52,0,0,1-.26,1H46A4.21,4.21,0,0,0,41.75,76v7.68A4.22,4.22,0,0,0,46,87.94h99a5.31,5.31,0,0,0,2.65-9.9Z" style="fill:#141414"/><path d="M55.18,120.17,93,142a4.21,4.21,0,0,0,5.76-1.54l3.84-6.65a4.21,4.21,0,0,0-1.54-5.76l-12-6.91a.52.52,0,0,1,.26-1H146a4.21,4.21,0,0,0,4.22-4.21v-7.68a4.22,4.22,0,0,0-4.22-4.22h-99a5.31,5.31,0,0,0-2.65,9.9Z" style="fill:#141414"/></g></svg>