<svg id="Layer_1" data-name="Layer 1" xmlns="http://www.w3.org/2000/svg" viewBox="0 0 192 192"><title>pms-icons</title><g id="performance-active"><circle cx="96" cy="96" r="85.36" style="fill:#141414"/><path d="M96,0a96,96,0,1,0,96,96A96,96,0,0,0,96,0Zm0,175.42A79.42,79.42,0,1,1,175.42,96,79.41,79.41,0,0,1,96,175.42Z" style="fill:#141414"/><path d="M160.29,49.38,111.44,98.23,95.17,82,83.45,70.24,71.73,82,24.05,129.64a79.11,79.11,0,0,0,8.86,14.58L83.45,93.68l28,28L123.16,110l45.66-45.67A79.76,79.76,0,0,0,160.29,49.38Z" style="fill:#f8f8f8"/></g></svg>